<svg width="100%" height="100%" id="svg" viewBox="0 0 1440 500" xmlns="http://www.w3.org/2000/svg" class="transition duration-300 ease-in-out delay-150"><defs><linearGradient id="gradient" x1="89%" y1="19%" x2="11%" y2="81%"><stop offset="5%" stop-color="#f8ede3"></stop><stop offset="95%" stop-color="#dfd3c3"></stop></linearGradient></defs><path d="M 0,500 C 0,500 0,166 0,166 C 110,141.2 220,116.4 393,135 C 566,153.6 802,215.6 987,228 C 1172,240.4 1306,203.2 1440,166 C 1440,166 1440,500 1440,500 Z" stroke="none" stroke-width="0" fill="url(#gradient)" fill-opacity="0.53" class="transition-all duration-300 ease-in-out delay-150 path-0"></path><defs><linearGradient id="gradient" x1="89%" y1="19%" x2="11%" y2="81%"><stop offset="5%" stop-color="#f8ede3"></stop><stop offset="95%" stop-color="#dfd3c3"></stop></linearGradient></defs><path d="M 0,500 C 0,500 0,333 0,333 C 130.66666666666669,339.1333333333333 261.33333333333337,345.2666666666667 427,331 C 592.6666666666666,316.7333333333333 793.3333333333333,282.06666666666666 968,279 C 1142.6666666666667,275.93333333333334 1291.3333333333335,304.4666666666667 1440,333 C 1440,333 1440,500 1440,500 Z" stroke="none" stroke-width="0" fill="url(#gradient)" fill-opacity="1" class="transition-all duration-300 ease-in-out delay-150 path-1"></path></svg>