<?xml version="1.0" ?><!DOCTYPE svg  PUBLIC '-//W3C//DTD SVG 1.1//EN'  'http://www.w3.org/Graphics/SVG/1.1/DTD/svg11.dtd'><svg enable-background="new 0 0 24 24" height="24px" id="Layer_1" version="1.1" viewBox="0 0 24 24" width="24px" xml:space="preserve" xmlns="http://www.w3.org/2000/svg" xmlns:xlink="http://www.w3.org/1999/xlink"><g><path d="M20,0H4C3.4,0,3,0.4,3,1v22c0,0.6,0.4,1,1,1h16c0.6,0,1-0.4,1-1V1C21,0.4,20.6,0,20,0z M19,22H5V2h14V22z"/><path d="M11,15v2h2v-2c2,0,3-1.1,3-3c0-2.2-2-3-4-6c-2,3-4,3.8-4,6C8,13.9,9,15,11,15z"/></g></svg>